{
.appVersion = "1119";
copyright = "Copyright (c) 2018, Abdullah Arif (abdullah.a@gmail.com).";
customParameters = (
{
name = sampleText;
value = "٠١٢٣٤٥٦٧٨٩ 0123456789";
},
{
name = licenseURL;
value = "http://scripts.sil.org/OFL";
}
);
date = "2018-03-11 16:45:20 +0000";
designer = "Abdullah Arif";
designerURL = "https://makkuk.com/";
familyName = Nimra;
featurePrefixes = (
{
automatic = 1;
code = "languagesystem DFLT dflt;\012";
name = Languagesystems;
}
);
fontMaster = (
{
alignmentZones = (
"{1210, 18}",
"{1170, 18}",
"{650, 18}",
"{520, 18}",
"{0, -19}",
"{-40, -19}"
);
ascender = 1210;
capHeight = 1170;
customParameters = (
{
name = typoLineGap;
value = 0;
},
{
name = winAscent;
value = 1210;
},
{
name = hheaAscender;
value = 1210;
}
);
descender = -40;
guideLines = (
{
angle = 90;
locked = 1;
position = "{40, -130}";
},
{
locked = 1;
position = "{0, 130}";
},
{
locked = 1;
position = "{0, 260}";
},
{
locked = 1;
position = "{0, 390}";
},
{
locked = 1;
position = "{0, 520}";
},
{
locked = 1;
position = "{0, 650}";
},
{
locked = 1;
position = "{0, 780}";
},
{
locked = 1;
position = "{0, 910}";
},
{
locked = 1;
position = "{0, 1040}";
},
{
locked = 1;
position = "{0, 1170}";
},
{
angle = 90;
locked = 1;
position = "{300, -134}";
},
{
angle = 90;
locked = 1;
position = "{170, -130}";
},
{
angle = 90;
locked = 1;
position = "{430, -134}";
},
{
angle = 90;
locked = 1;
position = "{560, -134}";
},
{
angle = 90;
locked = 1;
position = "{690, -134}";
},
{
angle = 90;
locked = 1;
position = "{820, -134}";
},
{
angle = 90;
locked = 1;
position = "{950, -134}";
},
{
angle = 90;
locked = 1;
position = "{1080, -134}";
},
{
angle = 90;
locked = 1;
position = "{1210, -134}";
},
{
locked = 1;
position = "{0, 0}";
}
);
horizontalStems = (
130,
260,
520
);
id = "5AEFF443-300A-40AC-BA7E-D2439C71845E";
userData = {
GSCornerRadius = 260;
GSOffsetHorizontal = 65;
GSOffsetMakeStroke = 1;
GSOffsetPosition = 1;
GSOffsetVertical = 65;
};
verticalStems = (
130,
260
);
xHeight = 520;

glyphs = (
{
glyphname = zero;
lastChange = "2018-03-11 17:09:37 +0000";
layers = (
{
layerId = "5AEFF443-300A-40AC-BA7E-D2439C71845E";
paths = (
{
closed = 1;
nodes = (
"815 0 LINE SMOOTH",
"968 0 OFFCURVE",
"1080 112 OFFCURVE",
"1080 265 CURVE SMOOTH",
"1080 905 LINE SMOOTH",
"1080 1058 OFFCURVE",
"968 1170 OFFCURVE",
"815 1170 CURVE SMOOTH",
"435 1170 LINE SMOOTH",
"282 1170 OFFCURVE",
"170 1058 OFFCURVE",
"170 905 CURVE SMOOTH",
"170 265 LINE SMOOTH",
"170 112 OFFCURVE",
"282 0 OFFCURVE",
"435 0 CURVE SMOOTH"
);
},
{
closed = 1;
nodes = (
"356 130 OFFCURVE",
"300 186 OFFCURVE",
"300 263 CURVE SMOOTH",
"300 907 LINE SMOOTH",
"300 984 OFFCURVE",
"356 1040 OFFCURVE",
"433 1040 CURVE SMOOTH",
"817 1040 LINE SMOOTH",
"894 1040 OFFCURVE",
"950 984 OFFCURVE",
"950 907 CURVE SMOOTH",
"950 263 LINE SMOOTH",
"950 186 OFFCURVE",
"894 130 OFFCURVE",
"817 130 CURVE SMOOTH",
"433 130 LINE SMOOTH"
);
}
);
width = 1250;
},
{
associatedMasterId = "5AEFF443-300A-40AC-BA7E-D2439C71845E";
layerId = "022BDE4F-7BAB-42F0-A117-BA5D71B7E8C7";
name = Crude;
paths = (
{
closed = 1;
nodes = (
"1080 0 LINE",
"1080 1170 LINE",
"170 1170 LINE",
"170 0 LINE"
);
},
{
closed = 1;
nodes = (
"300 1040 LINE",
"950 1040 LINE",
"950 130 LINE",
"300 130 LINE"
);
}
);
width = 1250;
}
);
unicode = 0030;
},
{
glyphname = one;
lastChange = "2018-03-11 17:09:37 +0000";
layers = (
{
layerId = "5AEFF443-300A-40AC-BA7E-D2439C71845E";
paths = (
{
closed = 1;
nodes = (
"1014 0 LINE SMOOTH",
"1052 0 OFFCURVE",
"1080 28 OFFCURVE",
"1080 66 CURVE SMOOTH",
"1080 454 LINE SMOOTH",
"1080 492 OFFCURVE",
"1052 520 OFFCURVE",
"1014 520 CURVE SMOOTH",
"886 520 LINE SMOOTH",
"848 520 OFFCURVE",
"820 548 OFFCURVE",
"820 586 CURVE SMOOTH",
"820 1104 LINE SMOOTH",
"820 1142 OFFCURVE",
"792 1170 OFFCURVE",
"754 1170 CURVE SMOOTH",
"626 1170 LINE SMOOTH",
"588 1170 OFFCURVE",
"560 1142 OFFCURVE",
"560 1104 CURVE SMOOTH",
"560 1041 LINE SMOOTH",
"560 1003 OFFCURVE",
"588 975 OFFCURVE",
"625 975 CURVE SMOOTH",
"662 975 OFFCURVE",
"690 947 OFFCURVE",
"690 909 CURVE SMOOTH",
"690 586 LINE SMOOTH",
"690 548 OFFCURVE",
"662 520 OFFCURVE",
"625 520 CURVE SMOOTH",
"588 520 OFFCURVE",
"560 492 OFFCURVE",
"560 454 CURVE SMOOTH",
"560 66 LINE SMOOTH",
"560 28 OFFCURVE",
"588 0 OFFCURVE",
"626 0 CURVE SMOOTH"
);
}
);
width = 1250;
},
{
associatedMasterId = "5AEFF443-300A-40AC-BA7E-D2439C71845E";
layerId = "C84522FA-77D2-44B0-87C8-D75AEF641834";
name = Crude;
paths = (
{
closed = 1;
nodes = (
"1080 0 LINE",
"1080 520 LINE",
"820 520 LINE",
"820 1170 LINE",
"560 1170 LINE",
"560 975 LINE",
"690 975 LINE",
"690 520 LINE",
"560 520 LINE",
"560 0 LINE"
);
}
);
width = 1250;
}
);
unicode = 0031;
},
{
glyphname = two;
lastChange = "2018-03-11 17:09:37 +0000";
layers = (
{
layerId = "5AEFF443-300A-40AC-BA7E-D2439C71845E";
paths = (
{
closed = 1;
nodes = (
"1014 0 LINE SMOOTH",
"1052 0 OFFCURVE",
"1080 28 OFFCURVE",
"1080 65 CURVE SMOOTH",
"1080 102 OFFCURVE",
"1052 130 OFFCURVE",
"1014 130 CURVE SMOOTH",
"756 130 LINE SMOOTH",
"718 130 OFFCURVE",
"690 158 OFFCURVE",
"690 196 CURVE SMOOTH",
"690 454 LINE SMOOTH",
"690 492 OFFCURVE",
"718 520 OFFCURVE",
"756 520 CURVE SMOOTH",
"1014 520 LINE SMOOTH",
"1052 520 OFFCURVE",
"1080 548 OFFCURVE",
"1080 586 CURVE SMOOTH",
"1080 1104 LINE SMOOTH",
"1080 1142 OFFCURVE",
"1052 1170 OFFCURVE",
"1014 1170 CURVE SMOOTH",
"626 1170 LINE SMOOTH",
"588 1170 OFFCURVE",
"560 1142 OFFCURVE",
"560 1105 CURVE SMOOTH",
"560 1067 OFFCURVE",
"588 1040 OFFCURVE",
"626 1040 CURVE SMOOTH",
"884 1040 LINE SMOOTH",
"922 1040 OFFCURVE",
"950 1012 OFFCURVE",
"950 974 CURVE SMOOTH",
"950 716 LINE SMOOTH",
"950 678 OFFCURVE",
"922 650 OFFCURVE",
"884 650 CURVE SMOOTH",
"626 650 LINE SMOOTH",
"588 650 OFFCURVE",
"560 622 OFFCURVE",
"560 584 CURVE SMOOTH",
"560 66 LINE SMOOTH",
"560 28 OFFCURVE",
"588 0 OFFCURVE",
"626 0 CURVE SMOOTH"
);
}
);
width = 1250;
},
{
associatedMasterId = "5AEFF443-300A-40AC-BA7E-D2439C71845E";
layerId = "244141C4-528F-4853-97F8-33AD1FC5ECFF";
name = Crude;
paths = (
{
closed = 1;
nodes = (
"1080 0 LINE",
"1080 130 LINE",
"690 130 LINE",
"690 520 LINE",
"1080 520 LINE",
"1080 1170 LINE",
"560 1170 LINE",
"560 1040 LINE",
"950 1040 LINE",
"950 650 LINE",
"560 650 LINE",
"560 0 LINE"
);
}
);
width = 1250;
}
);
unicode = 0032;
},
{
glyphname = three;
lastChange = "2018-03-11 17:09:37 +0000";
layers = (
{
layerId = "5AEFF443-300A-40AC-BA7E-D2439C71845E";
paths = (
{
closed = 1;
nodes = (
"1014 0 LINE SMOOTH",
"1052 0 OFFCURVE",
"1080 28 OFFCURVE",
"1080 66 CURVE SMOOTH",
"1080 519 LINE SMOOTH",
"1080 557 OFFCURVE",
"1052 585 OFFCURVE",
"1015 585 CURVE SMOOTH",
"978 585 OFFCURVE",
"950 613 OFFCURVE",
"950 651 CURVE SMOOTH",
"950 1104 LINE SMOOTH",
"950 1142 OFFCURVE",
"922 1170 OFFCURVE",
"884 1170 CURVE SMOOTH",
"496 1170 LINE SMOOTH",
"458 1170 OFFCURVE",
"430 1142 OFFCURVE",
"430 1105 CURVE SMOOTH",
"430 1068 OFFCURVE",
"458 1040 OFFCURVE",
"496 1040 CURVE SMOOTH",
"754 1040 LINE SMOOTH",
"792 1040 OFFCURVE",
"820 1012 OFFCURVE",
"820 974 CURVE SMOOTH",
"820 716 LINE SMOOTH",
"820 678 OFFCURVE",
"792 650 OFFCURVE",
"754 650 CURVE SMOOTH",
"496 650 LINE SMOOTH",
"458 650 OFFCURVE",
"430 622 OFFCURVE",
"430 585 CURVE SMOOTH",
"430 548 OFFCURVE",
"458 520 OFFCURVE",
"496 520 CURVE SMOOTH",
"754 520 LINE SMOOTH",
"792 520 OFFCURVE",
"820 492 OFFCURVE",
"820 454 CURVE SMOOTH",
"820 196 LINE SMOOTH",
"820 158 OFFCURVE",
"792 130 OFFCURVE",
"754 130 CURVE SMOOTH",
"496 130 LINE SMOOTH",
"458 130 OFFCURVE",
"430 102 OFFCURVE",
"430 65 CURVE SMOOTH",
"430 28 OFFCURVE",
"458 0 OFFCURVE",
"496 0 CURVE SMOOTH"
);
}
);
width = 1250;
},
{
associatedMasterId = "5AEFF443-300A-40AC-BA7E-D2439C71845E";
layerId = "5DD6B7D0-F669-49F2-838E-068C2D36DED7";
name = Crude;
paths = (
{
closed = 1;
nodes = (
"1080 0 LINE",
"1080 585 LINE",
"950 585 LINE",
"950 1170 LINE",
"430 1170 LINE",
"430 1040 LINE",
"820 1040 LINE",
"820 650 LINE",
"430 650 LINE",
"430 520 LINE",
"820 520 LINE",
"820 130 LINE",
"430 130 LINE",
"430 0 LINE"
);
}
);
width = 1250;
}
);
unicode = 0033;
},
{
glyphname = four;
lastChange = "2018-03-11 17:09:37 +0000";
layers = (
{
layerId = "5AEFF443-300A-40AC-BA7E-D2439C71845E";
paths = (
{
closed = 1;
nodes = (
"1014 0 LINE SMOOTH",
"1052 0 OFFCURVE",
"1080 28 OFFCURVE",
"1080 66 CURVE SMOOTH",
"1080 454 LINE SMOOTH",
"1080 492 OFFCURVE",
"1052 520 OFFCURVE",
"1014 520 CURVE SMOOTH",
"886 520 LINE SMOOTH",
"848 520 OFFCURVE",
"820 492 OFFCURVE",
"820 455 CURVE SMOOTH",
"820 417 OFFCURVE",
"792 390 OFFCURVE",
"754 390 CURVE SMOOTH",
"626 390 LINE SMOOTH",
"588 390 OFFCURVE",
"560 418 OFFCURVE",
"560 456 CURVE SMOOTH",
"560 1104 LINE SMOOTH",
"560 1142 OFFCURVE",
"532 1170 OFFCURVE",
"494 1170 CURVE SMOOTH",
"366 1170 LINE SMOOTH",
"328 1170 OFFCURVE",
"300 1142 OFFCURVE",
"300 1104 CURVE SMOOTH",
"300 326 LINE SMOOTH",
"300 288 OFFCURVE",
"328 260 OFFCURVE",
"366 260 CURVE SMOOTH",
"754 260 LINE SMOOTH",
"792 260 OFFCURVE",
"820 232 OFFCURVE",
"820 194 CURVE SMOOTH",
"820 66 LINE SMOOTH",
"820 28 OFFCURVE",
"848 0 OFFCURVE",
"886 0 CURVE SMOOTH"
);
}
);
width = 1250;
},
{
associatedMasterId = "5AEFF443-300A-40AC-BA7E-D2439C71845E";
layerId = "56C461C6-ECE6-4BA9-BC32-B9738EA8840A";
name = Crude;
paths = (
{
closed = 1;
nodes = (
"1080 0 LINE",
"1080 520 LINE",
"820 520 LINE",
"820 390 LINE",
"560 390 LINE",
"560 1170 LINE",
"300 1170 LINE",
"300 260 LINE",
"820 260 LINE",
"820 0 LINE"
);
}
);
width = 1250;
}
);
unicode = 0034;
},
{
glyphname = five;
lastChange = "2018-03-11 17:09:37 +0000";
layers = (
{
layerId = "5AEFF443-300A-40AC-BA7E-D2439C71845E";
paths = (
{
closed = 1;
nodes = (
"1014 0 LINE SMOOTH",
"1052 0 OFFCURVE",
"1080 28 OFFCURVE",
"1080 66 CURVE SMOOTH",
"1080 584 LINE SMOOTH",
"1080 622 OFFCURVE",
"1052 650 OFFCURVE",
"1014 650 CURVE SMOOTH",
"626 650 LINE SMOOTH",
"588 650 OFFCURVE",
"560 678 OFFCURVE",
"560 716 CURVE SMOOTH",
"560 974 LINE SMOOTH",
"560 1012 OFFCURVE",
"588 1040 OFFCURVE",
"626 1040 CURVE SMOOTH",
"1014 1040 LINE SMOOTH",
"1052 1040 OFFCURVE",
"1080 1068 OFFCURVE",
"1080 1105 CURVE SMOOTH",
"1080 1143 OFFCURVE",
"1052 1170 OFFCURVE",
"1014 1170 CURVE SMOOTH",
"496 1170 LINE SMOOTH",
"458 1170 OFFCURVE",
"430 1142 OFFCURVE",
"430 1104 CURVE SMOOTH",
"430 586 LINE SMOOTH",
"430 548 OFFCURVE",
"458 520 OFFCURVE",
"496 520 CURVE SMOOTH",
"884 520 LINE SMOOTH",
"922 520 OFFCURVE",
"950 492 OFFCURVE",
"950 454 CURVE SMOOTH",
"950 196 LINE SMOOTH",
"950 158 OFFCURVE",
"922 130 OFFCURVE",
"884 130 CURVE SMOOTH",
"496 130 LINE SMOOTH",
"458 130 OFFCURVE",
"430 102 OFFCURVE",
"430 65 CURVE SMOOTH",
"430 28 OFFCURVE",
"458 0 OFFCURVE",
"496 0 CURVE SMOOTH"
);
}
);
width = 1250;
},
{
associatedMasterId = "5AEFF443-300A-40AC-BA7E-D2439C71845E";
layerId = "537D82D2-638F-4D8E-A63E-9FD1306232F3";
name = Crude;
paths = (
{
closed = 1;
nodes = (
"1080 0 LINE",
"1080 650 LINE",
"560 650 LINE",
"560 1040 LINE",
"1080 1040 LINE",
"1080 1170 LINE",
"430 1170 LINE",
"430 520 LINE",
"950 520 LINE",
"950 130 LINE",
"430 130 LINE",
"430 0 LINE"
);
}
);
width = 1250;
}
);
unicode = 0035;
},
{
glyphname = six;
lastChange = "2018-03-11 17:09:37 +0000";
layers = (
{
layerId = "5AEFF443-300A-40AC-BA7E-D2439C71845E";
paths = (
{
closed = 1;
nodes = (
"1014 0 LINE SMOOTH",
"1052 0 OFFCURVE",
"1080 28 OFFCURVE",
"1080 66 CURVE SMOOTH",
"1080 454 LINE SMOOTH",
"1080 492 OFFCURVE",
"1052 520 OFFCURVE",
"1014 520 CURVE SMOOTH",
"496 520 LINE SMOOTH",
"458 520 OFFCURVE",
"430 548 OFFCURVE",
"430 586 CURVE SMOOTH",
"430 974 LINE SMOOTH",
"430 1012 OFFCURVE",
"458 1040 OFFCURVE",
"496 1040 CURVE SMOOTH",
"624 1040 LINE SMOOTH",
"662 1040 OFFCURVE",
"690 1012 OFFCURVE",
"690 974 CURVE SMOOTH",
"690 911 LINE SMOOTH",
"690 873 OFFCURVE",
"718 845 OFFCURVE",
"755 845 CURVE SMOOTH",
"792 845 OFFCURVE",
"820 873 OFFCURVE",
"820 911 CURVE SMOOTH",
"820 1104 LINE SMOOTH",
"820 1142 OFFCURVE",
"792 1170 OFFCURVE",
"754 1170 CURVE SMOOTH",
"366 1170 LINE SMOOTH",
"328 1170 OFFCURVE",
"300 1142 OFFCURVE",
"300 1104 CURVE SMOOTH",
"300 66 LINE SMOOTH",
"300 28 OFFCURVE",
"328 0 OFFCURVE",
"366 0 CURVE SMOOTH"
);
},
{
closed = 1;
nodes = (
"458 130 OFFCURVE",
"430 158 OFFCURVE",
"430 196 CURVE SMOOTH",
"430 324 LINE SMOOTH",
"430 362 OFFCURVE",
"458 390 OFFCURVE",
"496 390 CURVE SMOOTH",
"884 390 LINE SMOOTH",
"922 390 OFFCURVE",
"950 362 OFFCURVE",
"950 324 CURVE SMOOTH",
"950 196 LINE SMOOTH",
"950 158 OFFCURVE",
"922 130 OFFCURVE",
"884 130 CURVE SMOOTH",
"496 130 LINE SMOOTH"
);
}
);
width = 1250;
},
{
associatedMasterId = "5AEFF443-300A-40AC-BA7E-D2439C71845E";
layerId = "6326946C-6F0B-4B1C-97E3-FAB23FA1DA01";
name = Crude;
paths = (
{
closed = 1;
nodes = (
"1080 0 LINE",
"1080 520 LINE",
"430 520 LINE",
"430 1040 LINE",
"690 1040 LINE",
"690 845 LINE",
"820 845 LINE",
"820 1170 LINE",
"300 1170 LINE",
"300 0 LINE"
);
},
{
closed = 1;
nodes = (
"430 390 LINE",
"950 390 LINE",
"950 130 LINE",
"430 130 LINE"
);
}
);
width = 1250;
}
);
unicode = 0036;
},
{
glyphname = seven;
lastChange = "2018-03-11 17:09:37 +0000";
layers = (
{
layerId = "5AEFF443-300A-40AC-BA7E-D2439C71845E";
paths = (
{
closed = 1;
nodes = (
"793 0 OFFCURVE",
"820 28 OFFCURVE",
"820 66 CURVE SMOOTH",
"820 484 LINE SMOOTH",
"820 506 OFFCURVE",
"832 526 OFFCURVE",
"852 536 CURVE SMOOTH",
"1048 634 LINE SMOOTH",
"1068 644 OFFCURVE",
"1080 664 OFFCURVE",
"1080 686 CURVE SMOOTH",
"1080 1104 LINE SMOOTH",
"1080 1142 OFFCURVE",
"1052 1170 OFFCURVE",
"1014 1170 CURVE SMOOTH",
"496 1170 LINE SMOOTH",
"458 1170 OFFCURVE",
"430 1142 OFFCURVE",
"430 1104 CURVE SMOOTH",
"430 846 LINE SMOOTH",
"430 808 OFFCURVE",
"458 780 OFFCURVE",
"495 780 CURVE SMOOTH",
"532 780 OFFCURVE",
"560 808 OFFCURVE",
"560 846 CURVE SMOOTH",
"560 974 LINE SMOOTH",
"560 1012 OFFCURVE",
"588 1040 OFFCURVE",
"626 1040 CURVE SMOOTH",
"884 1040 LINE SMOOTH",
"922 1040 OFFCURVE",
"950 1012 OFFCURVE",
"950 974 CURVE SMOOTH",
"950 766 LINE SMOOTH",
"950 744 OFFCURVE",
"938 724 OFFCURVE",
"918 714 CURVE SMOOTH",
"722 616 LINE SMOOTH",
"702 606 OFFCURVE",
"690 586 OFFCURVE",
"690 564 CURVE SMOOTH",
"690 66 LINE SMOOTH",
"690 28 OFFCURVE",
"718 0 OFFCURVE",
"755 0 CURVE SMOOTH"
);
}
);
width = 1250;
},
{
associatedMasterId = "5AEFF443-300A-40AC-BA7E-D2439C71845E";
layerId = "406618CD-F216-4F5C-98E6-D91DA414EE62";
name = Crude;
paths = (
{
closed = 1;
nodes = (
"820 0 LINE",
"820 520 LINE",
"1080 650 LINE",
"1080 1170 LINE",
"430 1170 LINE",
"430 780 LINE",
"560 780 LINE",
"560 1040 LINE",
"950 1040 LINE",
"950 730 LINE",
"690 600 LINE",
"690 0 LINE"
);
}
);
width = 1250;
},
{
annotations = (
{
position = "{1401, 1168}";
text = "To create the crude shape, Filter -> offset curve with the following params (\012	{\012		Filter = \"OffsetCurve;65;65;1;1;\";\012	}\012)";
type = Text;
width = 176;
}
);
associatedMasterId = "5AEFF443-300A-40AC-BA7E-D2439C71845E";
layerId = "6C39980B-894F-4538-9E26-A4C01078A9E5";
name = Line;
paths = (
{
closed = 0;
nodes = (
"820 0 LINE",
"820 520 LINE",
"1080 650 LINE",
"1080 1170 LINE",
"430 1170 LINE",
"430 780 LINE"
);
}
);
width = 1250;
}
);
unicode = 0037;
},
{
glyphname = eight;
lastChange = "2018-03-11 17:09:37 +0000";
layers = (
{
layerId = "5AEFF443-300A-40AC-BA7E-D2439C71845E";
paths = (
{
closed = 1;
nodes = (
"1014 0 LINE SMOOTH",
"1052 0 OFFCURVE",
"1080 28 OFFCURVE",
"1080 66 CURVE SMOOTH",
"1080 519 LINE SMOOTH",
"1080 557 OFFCURVE",
"1052 585 OFFCURVE",
"1015 585 CURVE SMOOTH",
"978 585 OFFCURVE",
"950 613 OFFCURVE",
"950 651 CURVE SMOOTH",
"950 1104 LINE SMOOTH",
"950 1142 OFFCURVE",
"922 1170 OFFCURVE",
"884 1170 CURVE SMOOTH",
"366 1170 LINE SMOOTH",
"328 1170 OFFCURVE",
"300 1142 OFFCURVE",
"300 1104 CURVE SMOOTH",
"300 651 LINE SMOOTH",
"300 613 OFFCURVE",
"272 585 OFFCURVE",
"235 585 CURVE SMOOTH",
"198 585 OFFCURVE",
"170 557 OFFCURVE",
"170 519 CURVE SMOOTH",
"170 66 LINE SMOOTH",
"170 28 OFFCURVE",
"198 0 OFFCURVE",
"236 0 CURVE SMOOTH"
);
},
{
closed = 1;
nodes = (
"458 130 OFFCURVE",
"430 158 OFFCURVE",
"430 196 CURVE SMOOTH",
"430 454 LINE SMOOTH",
"430 492 OFFCURVE",
"458 520 OFFCURVE",
"496 520 CURVE SMOOTH",
"754 520 LINE SMOOTH",
"792 520 OFFCURVE",
"820 492 OFFCURVE",
"820 454 CURVE SMOOTH",
"820 196 LINE SMOOTH",
"820 158 OFFCURVE",
"792 130 OFFCURVE",
"754 130 CURVE SMOOTH",
"496 130 LINE SMOOTH"
);
},
{
closed = 1;
nodes = (
"458 650 OFFCURVE",
"430 678 OFFCURVE",
"430 716 CURVE SMOOTH",
"430 974 LINE SMOOTH",
"430 1012 OFFCURVE",
"458 1040 OFFCURVE",
"496 1040 CURVE SMOOTH",
"754 1040 LINE SMOOTH",
"792 1040 OFFCURVE",
"820 1012 OFFCURVE",
"820 974 CURVE SMOOTH",
"820 716 LINE SMOOTH",
"820 678 OFFCURVE",
"792 650 OFFCURVE",
"754 650 CURVE SMOOTH",
"496 650 LINE SMOOTH"
);
}
);
width = 1250;
},
{
associatedMasterId = "5AEFF443-300A-40AC-BA7E-D2439C71845E";
layerId = "9D554907-FBFE-4ACE-A755-53E4A1C7E2F0";
name = Crude;
paths = (
{
closed = 1;
nodes = (
"950 1170 LINE",
"300 1170 LINE",
"300 520 LINE",
"170 520 LINE",
"170 0 LINE",
"1080 0 LINE",
"1080 520 LINE",
"950 520 LINE"
);
},
{
closed = 1;
nodes = (
"820 1040 LINE",
"820 650 LINE",
"430 650 LINE",
"430 1040 LINE"
);
},
{
closed = 1;
nodes = (
"430 130 LINE",
"430 520 LINE",
"820 520 LINE",
"820 130 LINE"
);
},
{
closed = 1;
nodes = (
"950 585 LINE",
"950 520 LINE",
"1080 520 LINE",
"1080 585 LINE"
);
},
{
closed = 1;
nodes = (
"170 520 LINE",
"300 520 LINE",
"300 585 LINE",
"170 585 LINE"
);
}
);
width = 1250;
}
);
unicode = 0038;
},
{
glyphname = nine;
lastChange = "2018-03-11 17:09:37 +0000";
layers = (
{
layerId = "5AEFF443-300A-40AC-BA7E-D2439C71845E";
paths = (
{
closed = 1;
nodes = (
"1014 0 LINE SMOOTH",
"1052 0 OFFCURVE",
"1080 28 OFFCURVE",
"1080 66 CURVE SMOOTH",
"1080 1104 LINE SMOOTH",
"1080 1142 OFFCURVE",
"1052 1170 OFFCURVE",
"1014 1170 CURVE SMOOTH",
"366 1170 LINE SMOOTH",
"328 1170 OFFCURVE",
"300 1142 OFFCURVE",
"300 1104 CURVE SMOOTH",
"300 586 LINE SMOOTH",
"300 548 OFFCURVE",
"328 520 OFFCURVE",
"366 520 CURVE SMOOTH",
"754 520 LINE SMOOTH",
"792 520 OFFCURVE",
"820 492 OFFCURVE",
"820 454 CURVE SMOOTH",
"820 66 LINE SMOOTH",
"820 28 OFFCURVE",
"848 0 OFFCURVE",
"886 0 CURVE SMOOTH"
);
},
{
closed = 1;
nodes = (
"458 650 OFFCURVE",
"430 678 OFFCURVE",
"430 716 CURVE SMOOTH",
"430 974 LINE SMOOTH",
"430 1012 OFFCURVE",
"458 1040 OFFCURVE",
"496 1040 CURVE SMOOTH",
"884 1040 LINE SMOOTH",
"922 1040 OFFCURVE",
"950 1012 OFFCURVE",
"950 974 CURVE SMOOTH",
"950 716 LINE SMOOTH",
"950 678 OFFCURVE",
"922 650 OFFCURVE",
"884 650 CURVE SMOOTH",
"496 650 LINE SMOOTH"
);
}
);
width = 1250;
},
{
associatedMasterId = "5AEFF443-300A-40AC-BA7E-D2439C71845E";
layerId = "EFE1B532-7B19-4A74-A1E7-30ADAD397706";
name = Crude;
paths = (
{
closed = 1;
nodes = (
"300 1170 LINE",
"300 520 LINE",
"820 520 LINE",
"820 0 LINE",
"1080 0 LINE",
"1080 1170 LINE"
);
},
{
closed = 1;
nodes = (
"430 650 LINE",
"430 1040 LINE",
"950 1040 LINE",
"950 650 LINE"
);
}
);
width = 1250;
}
);
unicode = 0039;
},
{
glyphname = "zero-ar";
lastChange = "2018-03-11 17:09:37 +0000";
layers = (
{
layerId = "5AEFF443-300A-40AC-BA7E-D2439C71845E";
paths = (
{
closed = 1;
nodes = (
"1014 260 LINE SMOOTH",
"1052 260 OFFCURVE",
"1080 288 OFFCURVE",
"1080 326 CURVE SMOOTH",
"1080 714 LINE SMOOTH",
"1080 752 OFFCURVE",
"1052 780 OFFCURVE",
"1014 780 CURVE SMOOTH",
"626 780 LINE SMOOTH",
"588 780 OFFCURVE",
"560 752 OFFCURVE",
"560 714 CURVE SMOOTH",
"560 326 LINE SMOOTH",
"560 288 OFFCURVE",
"588 260 OFFCURVE",
"626 260 CURVE SMOOTH"
);
}
);
width = 1250;
},
{
associatedMasterId = "5AEFF443-300A-40AC-BA7E-D2439C71845E";
layerId = "508577C6-EDF5-475B-AD7D-2B637B2D2BF7";
name = Crude;
paths = (
{
closed = 1;
nodes = (
"1080 260 LINE",
"1080 780 LINE",
"560 780 LINE",
"560 260 LINE"
);
}
);
width = 1250;
}
);
unicode = 0660;
},
{
glyphname = "one-ar";
lastChange = "2018-03-11 17:09:37 +0000";
layers = (
{
layerId = "5AEFF443-300A-40AC-BA7E-D2439C71845E";
paths = (
{
closed = 1;
nodes = (
"1052 0 OFFCURVE",
"1080 28 OFFCURVE",
"1080 66 CURVE SMOOTH",
"1080 1104 LINE SMOOTH",
"1080 1142 OFFCURVE",
"1052 1170 OFFCURVE",
"1014 1170 CURVE SMOOTH",
"886 1170 LINE SMOOTH",
"848 1170 OFFCURVE",
"820 1142 OFFCURVE",
"820 1104 CURVE SMOOTH",
"820 456 LINE SMOOTH",
"820 418 OFFCURVE",
"848 390 OFFCURVE",
"885 390 CURVE SMOOTH",
"922 390 OFFCURVE",
"950 362 OFFCURVE",
"950 324 CURVE SMOOTH",
"950 66 LINE SMOOTH",
"950 28 OFFCURVE",
"978 0 OFFCURVE",
"1015 0 CURVE SMOOTH"
);
}
);
width = 1250;
},
{
associatedMasterId = "5AEFF443-300A-40AC-BA7E-D2439C71845E";
layerId = "232F15A7-8C01-45EC-AB69-6CC9185F03D1";
name = Crude;
paths = (
{
closed = 1;
nodes = (
"820 1170 LINE",
"820 390 LINE",
"950 390 LINE",
"950 0 LINE",
"1080 0 LINE",
"1080 1170 LINE"
);
}
);
width = 1250;
}
);
unicode = 0661;
},
{
glyphname = "two-ar";
lastChange = "2018-03-11 17:09:37 +0000";
layers = (
{
layerId = "5AEFF443-300A-40AC-BA7E-D2439C71845E";
paths = (
{
closed = 1;
nodes = (
"662 0 OFFCURVE",
"690 28 OFFCURVE",
"690 66 CURVE SMOOTH",
"690 974 LINE SMOOTH",
"690 1012 OFFCURVE",
"718 1040 OFFCURVE",
"756 1040 CURVE SMOOTH",
"1014 1040 LINE SMOOTH",
"1052 1040 OFFCURVE",
"1080 1068 OFFCURVE",
"1080 1105 CURVE SMOOTH",
"1080 1142 OFFCURVE",
"1052 1170 OFFCURVE",
"1014 1170 CURVE SMOOTH",
"626 1170 LINE SMOOTH",
"588 1170 OFFCURVE",
"560 1142 OFFCURVE",
"560 1104 CURVE SMOOTH",
"560 66 LINE SMOOTH",
"560 28 OFFCURVE",
"588 0 OFFCURVE",
"625 0 CURVE SMOOTH"
);
}
);
width = 1250;
},
{
associatedMasterId = "5AEFF443-300A-40AC-BA7E-D2439C71845E";
layerId = "60062640-5E48-4F5C-8234-58A0CCD145C9";
name = Crude;
paths = (
{
closed = 1;
nodes = (
"560 0 LINE",
"690 0 LINE",
"690 1040 LINE",
"1080 1040 LINE",
"1080 1170 LINE",
"560 1170 LINE"
);
}
);
width = 1250;
},
{
associatedMasterId = "5AEFF443-300A-40AC-BA7E-D2439C71845E";
layerId = "275103F6-3297-4C2B-A6D9-D93E0EEF96D3";
name = Toothed;
paths = (
{
closed = 1;
nodes = (
"950 846 LINE SMOOTH",
"950 808 OFFCURVE",
"922 780 OFFCURVE",
"884 780 CURVE SMOOTH",
"626 780 LINE SMOOTH",
"588 780 OFFCURVE",
"560 808 OFFCURVE",
"560 846 CURVE SMOOTH",
"560 974 LINE SMOOTH",
"560 1012 OFFCURVE",
"532 1040 OFFCURVE",
"495 1040 CURVE SMOOTH",
"458 1040 OFFCURVE",
"430 1012 OFFCURVE",
"430 974 CURVE SMOOTH",
"430 66 LINE SMOOTH",
"430 28 OFFCURVE",
"458 0 OFFCURVE",
"495 0 CURVE SMOOTH",
"532 0 OFFCURVE",
"560 28 OFFCURVE",
"560 66 CURVE SMOOTH",
"560 454 LINE SMOOTH",
"560 492 OFFCURVE",
"588 520 OFFCURVE",
"626 520 CURVE SMOOTH",
"1014 520 LINE SMOOTH",
"1052 520 OFFCURVE",
"1080 548 OFFCURVE",
"1080 586 CURVE SMOOTH",
"1080 1104 LINE SMOOTH",
"1080 1142 OFFCURVE",
"1052 1170 OFFCURVE",
"1015 1170 CURVE SMOOTH",
"978 1170 OFFCURVE",
"950 1142 OFFCURVE",
"950 1104 CURVE SMOOTH"
);
}
);
width = 1250;
},
{
associatedMasterId = "5AEFF443-300A-40AC-BA7E-D2439C71845E";
layerId = "BA611FB0-F2E9-4680-85A6-83AED7B53C84";
name = Staggered;
paths = (
{
closed = 1;
nodes = (
"756 1040 LINE SMOOTH",
"718 1040 OFFCURVE",
"690 1012 OFFCURVE",
"690 974 CURVE SMOOTH",
"690 701 LINE SMOOTH",
"690 679 OFFCURVE",
"702 659 OFFCURVE",
"722 649 CURVE SMOOTH",
"918 551 LINE SMOOTH",
"938 541 OFFCURVE",
"950 521 OFFCURVE",
"950 499 CURVE SMOOTH",
"950 66 LINE SMOOTH",
"950 28 OFFCURVE",
"922 0 OFFCURVE",
"885 0 CURVE SMOOTH",
"848 0 OFFCURVE",
"820 28 OFFCURVE",
"820 66 CURVE SMOOTH",
"820 419 LINE SMOOTH",
"820 441 OFFCURVE",
"808 461 OFFCURVE",
"788 471 CURVE SMOOTH",
"592 569 LINE SMOOTH",
"572 579 OFFCURVE",
"560 599 OFFCURVE",
"560 621 CURVE SMOOTH",
"560 1104 LINE SMOOTH",
"560 1142 OFFCURVE",
"588 1170 OFFCURVE",
"626 1170 CURVE SMOOTH",
"1014 1170 LINE SMOOTH",
"1052 1170 OFFCURVE",
"1080 1142 OFFCURVE",
"1080 1105 CURVE SMOOTH",
"1080 1068 OFFCURVE",
"1052 1040 OFFCURVE",
"1014 1040 CURVE SMOOTH"
);
}
);
width = 1250;
}
);
unicode = 0662;
},
{
glyphname = "three-ar";
lastChange = "2018-03-11 17:09:37 +0000";
layers = (
{
layerId = "5AEFF443-300A-40AC-BA7E-D2439C71845E";
paths = (
{
closed = 1;
nodes = (
"272 0 OFFCURVE",
"300 28 OFFCURVE",
"300 66 CURVE SMOOTH",
"300 454 LINE SMOOTH",
"300 492 OFFCURVE",
"328 520 OFFCURVE",
"366 520 CURVE SMOOTH",
"559 520 LINE SMOOTH",
"597 520 OFFCURVE",
"625 492 OFFCURVE",
"625 455 CURVE SMOOTH",
"625 418 OFFCURVE",
"653 390 OFFCURVE",
"691 390 CURVE SMOOTH",
"1014 390 LINE SMOOTH",
"1052 390 OFFCURVE",
"1080 418 OFFCURVE",
"1080 456 CURVE SMOOTH",
"1080 1104 LINE SMOOTH",
"1080 1142 OFFCURVE",
"1052 1170 OFFCURVE",
"1015 1170 CURVE SMOOTH",
"978 1170 OFFCURVE",
"950 1142 OFFCURVE",
"950 1104 CURVE SMOOTH",
"950 716 LINE SMOOTH",
"950 678 OFFCURVE",
"922 650 OFFCURVE",
"884 650 CURVE SMOOTH",
"756 650 LINE SMOOTH",
"718 650 OFFCURVE",
"690 678 OFFCURVE",
"690 716 CURVE SMOOTH",
"690 844 LINE SMOOTH",
"690 882 OFFCURVE",
"662 910 OFFCURVE",
"625 910 CURVE SMOOTH",
"588 910 OFFCURVE",
"560 882 OFFCURVE",
"560 844 CURVE SMOOTH",
"560 716 LINE SMOOTH",
"560 678 OFFCURVE",
"532 650 OFFCURVE",
"494 650 CURVE SMOOTH",
"366 650 LINE SMOOTH",
"328 650 OFFCURVE",
"300 678 OFFCURVE",
"300 716 CURVE SMOOTH",
"300 974 LINE SMOOTH",
"300 1012 OFFCURVE",
"272 1040 OFFCURVE",
"235 1040 CURVE SMOOTH",
"198 1040 OFFCURVE",
"170 1012 OFFCURVE",
"170 974 CURVE SMOOTH",
"170 66 LINE SMOOTH",
"170 28 OFFCURVE",
"198 0 OFFCURVE",
"235 0 CURVE SMOOTH"
);
}
);
width = 1250;
},
{
associatedMasterId = "5AEFF443-300A-40AC-BA7E-D2439C71845E";
layerId = "AE91B984-B094-4EAC-A7C7-23C98B131A79";
name = Crude;
paths = (
{
closed = 1;
nodes = (
"950 650 LINE",
"690 650 LINE",
"690 910 LINE",
"560 910 LINE",
"560 650 LINE",
"300 650 LINE",
"300 1040 LINE",
"170 1040 LINE",
"170 0 LINE",
"300 0 LINE",
"300 520 LINE",
"625 520 LINE",
"625 390 LINE",
"1080 390 LINE",
"1080 1170 LINE",
"950 1170 LINE"
);
}
);
width = 1250;
},
{
associatedMasterId = "5AEFF443-300A-40AC-BA7E-D2439C71845E";
layerId = "29952095-00C1-4FA2-943A-F7D16FBA5C71";
name = "Equal height";
paths = (
{
closed = 1;
nodes = (
"272 0 OFFCURVE",
"300 28 OFFCURVE",
"300 66 CURVE SMOOTH",
"300 454 LINE SMOOTH",
"300 492 OFFCURVE",
"328 520 OFFCURVE",
"366 520 CURVE SMOOTH",
"559 520 LINE SMOOTH",
"597 520 OFFCURVE",
"625 492 OFFCURVE",
"625 455 CURVE SMOOTH",
"625 418 OFFCURVE",
"653 390 OFFCURVE",
"691 390 CURVE SMOOTH",
"1014 390 LINE SMOOTH",
"1052 390 OFFCURVE",
"1080 418 OFFCURVE",
"1080 456 CURVE SMOOTH",
"1080 1104 LINE SMOOTH",
"1080 1142 OFFCURVE",
"1052 1170 OFFCURVE",
"1015 1170 CURVE SMOOTH",
"978 1170 OFFCURVE",
"950 1142 OFFCURVE",
"950 1104 CURVE SMOOTH",
"950 716 LINE SMOOTH",
"950 678 OFFCURVE",
"922 650 OFFCURVE",
"884 650 CURVE SMOOTH",
"756 650 LINE SMOOTH",
"718 650 OFFCURVE",
"690 678 OFFCURVE",
"690 716 CURVE SMOOTH",
"690 1104 LINE SMOOTH",
"690 1142 OFFCURVE",
"662 1170 OFFCURVE",
"625 1170 CURVE SMOOTH",
"588 1170 OFFCURVE",
"560 1142 OFFCURVE",
"560 1104 CURVE SMOOTH",
"560 716 LINE SMOOTH",
"560 678 OFFCURVE",
"532 650 OFFCURVE",
"494 650 CURVE SMOOTH",
"366 650 LINE SMOOTH",
"328 650 OFFCURVE",
"300 678 OFFCURVE",
"300 716 CURVE SMOOTH",
"300 1104 LINE SMOOTH",
"300 1142 OFFCURVE",
"272 1170 OFFCURVE",
"235 1170 CURVE SMOOTH",
"198 1170 OFFCURVE",
"170 1142 OFFCURVE",
"170 1104 CURVE SMOOTH",
"170 66 LINE SMOOTH",
"170 28 OFFCURVE",
"198 0 OFFCURVE",
"235 0 CURVE SMOOTH"
);
}
);
width = 1250;
}
);
unicode = 0663;
},
{
glyphname = "four-ar";
lastChange = "2018-03-11 17:09:37 +0000";
layers = (
{
layerId = "5AEFF443-300A-40AC-BA7E-D2439C71845E";
paths = (
{
closed = 1;
nodes = (
"1014 0 LINE SMOOTH",
"1052 0 OFFCURVE",
"1080 28 OFFCURVE",
"1080 66 CURVE SMOOTH",
"1080 194 LINE SMOOTH",
"1080 232 OFFCURVE",
"1052 260 OFFCURVE",
"1014 260 CURVE SMOOTH",
"626 260 LINE SMOOTH",
"588 260 OFFCURVE",
"560 288 OFFCURVE",
"560 326 CURVE SMOOTH",
"560 454 LINE SMOOTH",
"560 492 OFFCURVE",
"588 520 OFFCURVE",
"626 520 CURVE SMOOTH",
"1014 520 LINE SMOOTH",
"1052 520 OFFCURVE",
"1080 548 OFFCURVE",
"1080 586 CURVE SMOOTH",
"1080 714 LINE SMOOTH",
"1080 752 OFFCURVE",
"1052 780 OFFCURVE",
"1014 780 CURVE SMOOTH",
"756 780 LINE SMOOTH",
"718 780 OFFCURVE",
"690 808 OFFCURVE",
"690 846 CURVE SMOOTH",
"690 974 LINE SMOOTH",
"690 1012 OFFCURVE",
"718 1040 OFFCURVE",
"756 1040 CURVE SMOOTH",
"1014 1040 LINE SMOOTH",
"1052 1040 OFFCURVE",
"1080 1068 OFFCURVE",
"1080 1105 CURVE SMOOTH",
"1080 1143 OFFCURVE",
"1052 1170 OFFCURVE",
"1014 1170 CURVE SMOOTH",
"626 1170 LINE SMOOTH",
"588 1170 OFFCURVE",
"560 1142 OFFCURVE",
"560 1104 CURVE SMOOTH",
"560 653 LINE SMOOTH",
"560 615 OFFCURVE",
"532 587 OFFCURVE",
"495 587 CURVE SMOOTH",
"458 587 OFFCURVE",
"430 559 OFFCURVE",
"430 521 CURVE SMOOTH",
"430 66 LINE SMOOTH",
"430 28 OFFCURVE",
"458 0 OFFCURVE",
"496 0 CURVE SMOOTH"
);
}
);
width = 1250;
},
{
associatedMasterId = "5AEFF443-300A-40AC-BA7E-D2439C71845E";
layerId = "B79CB68F-D693-42F7-A4D6-9261CB4D671C";
name = Crude;
paths = (
{
closed = 1;
nodes = (
"1080 1170 LINE",
"560 1170 LINE",
"560 590 LINE",
"430 590 LINE",
"430 0 LINE",
"1080 0 LINE",
"1080 260 LINE",
"560 260 LINE",
"560 520 LINE",
"1080 520 LINE",
"1080 780 LINE",
"690 780 LINE",
"690 1040 LINE",
"1080 1040 LINE"
);
}
);
width = 1250;
},
{
associatedMasterId = "5AEFF443-300A-40AC-BA7E-D2439C71845E";
layerId = "987C7330-ED44-4EF2-A6B9-28F47B821F05";
name = "Vertical stress";
paths = (
{
closed = 1;
nodes = (
"1080 1143 OFFCURVE",
"1052 1170 OFFCURVE",
"1014 1170 CURVE SMOOTH",
"626 1170 LINE SMOOTH",
"588 1170 OFFCURVE",
"560 1142 OFFCURVE",
"560 1104 CURVE SMOOTH",
"560 656 LINE SMOOTH",
"560 618 OFFCURVE",
"532 590 OFFCURVE",
"495 590 CURVE SMOOTH",
"458 590 OFFCURVE",
"430 562 OFFCURVE",
"430 524 CURVE SMOOTH",
"430 66 LINE SMOOTH",
"430 28 OFFCURVE",
"458 0 OFFCURVE",
"496 0 CURVE SMOOTH",
"1014 0 LINE SMOOTH",
"1052 0 OFFCURVE",
"1080 28 OFFCURVE",
"1080 65 CURVE SMOOTH",
"1080 102 OFFCURVE",
"1052 130 OFFCURVE",
"1014 130 CURVE SMOOTH",
"756 130 LINE SMOOTH",
"718 130 OFFCURVE",
"690 158 OFFCURVE",
"690 196 CURVE SMOOTH",
"690 454 LINE SMOOTH",
"690 492 OFFCURVE",
"718 520 OFFCURVE",
"756 520 CURVE SMOOTH",
"1014 520 LINE SMOOTH",
"1052 520 OFFCURVE",
"1080 548 OFFCURVE",
"1080 585 CURVE SMOOTH",
"1080 622 OFFCURVE",
"1052 650 OFFCURVE",
"1014 650 CURVE SMOOTH",
"886 650 LINE SMOOTH",
"848 650 OFFCURVE",
"820 678 OFFCURVE",
"820 716 CURVE SMOOTH",
"820 974 LINE SMOOTH",
"820 1012 OFFCURVE",
"848 1040 OFFCURVE",
"886 1040 CURVE SMOOTH",
"1014 1040 LINE SMOOTH",
"1052 1040 OFFCURVE",
"1080 1068 OFFCURVE",
"1080 1105 CURVE SMOOTH"
);
}
);
width = 1250;
},
{
associatedMasterId = "5AEFF443-300A-40AC-BA7E-D2439C71845E";
layerId = "D1785884-7846-4466-9849-67535FD0EF3B";
name = "Alternate stress";
paths = (
{
closed = 1;
nodes = (
"1080 1143 OFFCURVE",
"1052 1170 OFFCURVE",
"1014 1170 CURVE SMOOTH",
"626 1170 LINE SMOOTH",
"588 1170 OFFCURVE",
"560 1142 OFFCURVE",
"560 1104 CURVE SMOOTH",
"560 653 LINE SMOOTH",
"560 615 OFFCURVE",
"532 587 OFFCURVE",
"495 587 CURVE SMOOTH",
"458 587 OFFCURVE",
"430 559 OFFCURVE",
"430 521 CURVE SMOOTH",
"430 66 LINE SMOOTH",
"430 28 OFFCURVE",
"458 0 OFFCURVE",
"496 0 CURVE SMOOTH",
"1014 0 LINE SMOOTH",
"1052 0 OFFCURVE",
"1080 28 OFFCURVE",
"1080 66 CURVE SMOOTH",
"1080 194 LINE SMOOTH",
"1080 232 OFFCURVE",
"1052 260 OFFCURVE",
"1014 260 CURVE SMOOTH",
"626 260 LINE SMOOTH",
"588 260 OFFCURVE",
"560 288 OFFCURVE",
"560 326 CURVE SMOOTH",
"560 454 LINE SMOOTH",
"560 492 OFFCURVE",
"588 520 OFFCURVE",
"626 520 CURVE SMOOTH",
"1014 520 LINE SMOOTH",
"1052 520 OFFCURVE",
"1080 548 OFFCURVE",
"1080 585 CURVE SMOOTH",
"1080 622 OFFCURVE",
"1052 650 OFFCURVE",
"1014 650 CURVE SMOOTH",
"886 650 LINE SMOOTH",
"848 650 OFFCURVE",
"820 678 OFFCURVE",
"820 716 CURVE SMOOTH",
"820 974 LINE SMOOTH",
"820 1012 OFFCURVE",
"848 1040 OFFCURVE",
"886 1040 CURVE SMOOTH",
"1014 1040 LINE SMOOTH",
"1052 1040 OFFCURVE",
"1080 1068 OFFCURVE",
"1080 1105 CURVE SMOOTH"
);
}
);
width = 1250;
},
{
associatedMasterId = "5AEFF443-300A-40AC-BA7E-D2439C71845E";
layerId = "0403A2FD-5C55-4BB3-86AF-B8AB774E43F9";
name = Compromise;
paths = (
{
closed = 1;
nodes = (
"1080 1143 OFFCURVE",
"1052 1170 OFFCURVE",
"1014 1170 CURVE SMOOTH",
"626 1170 LINE SMOOTH",
"588 1170 OFFCURVE",
"560 1142 OFFCURVE",
"560 1104 CURVE SMOOTH",
"560 653 LINE SMOOTH",
"560 615 OFFCURVE",
"532 587 OFFCURVE",
"495 587 CURVE SMOOTH",
"458 587 OFFCURVE",
"430 559 OFFCURVE",
"430 521 CURVE SMOOTH",
"430 66 LINE SMOOTH",
"430 28 OFFCURVE",
"458 0 OFFCURVE",
"496 0 CURVE SMOOTH",
"1014 0 LINE SMOOTH",
"1052 0 OFFCURVE",
"1080 28 OFFCURVE",
"1080 66 CURVE SMOOTH",
"1080 194 LINE SMOOTH",
"1080 232 OFFCURVE",
"1052 260 OFFCURVE",
"1014 260 CURVE SMOOTH",
"626 260 LINE SMOOTH",
"588 260 OFFCURVE",
"560 288 OFFCURVE",
"560 326 CURVE SMOOTH",
"560 454 LINE SMOOTH",
"560 492 OFFCURVE",
"588 520 OFFCURVE",
"626 520 CURVE SMOOTH",
"1014 520 LINE SMOOTH",
"1052 520 OFFCURVE",
"1080 548 OFFCURVE",
"1080 586 CURVE SMOOTH",
"1080 649 LINE SMOOTH",
"1080 687 OFFCURVE",
"1052 715 OFFCURVE",
"1014 715 CURVE SMOOTH",
"886 715 LINE SMOOTH",
"848 715 OFFCURVE",
"820 743 OFFCURVE",
"820 781 CURVE SMOOTH",
"820 974 LINE SMOOTH",
"820 1012 OFFCURVE",
"848 1040 OFFCURVE",
"886 1040 CURVE SMOOTH",
"1014 1040 LINE SMOOTH",
"1052 1040 OFFCURVE",
"1080 1068 OFFCURVE",
"1080 1105 CURVE SMOOTH"
);
}
);
width = 1250;
},
{
associatedMasterId = "5AEFF443-300A-40AC-BA7E-D2439C71845E";
layerId = "EBE11923-6D77-4767-92CA-7133781FCD52";
name = Thin;
paths = (
{
closed = 1;
nodes = (
"1080 1143 OFFCURVE",
"1052 1170 OFFCURVE",
"1014 1170 CURVE SMOOTH",
"626 1170 LINE SMOOTH",
"588 1170 OFFCURVE",
"560 1142 OFFCURVE",
"560 1104 CURVE SMOOTH",
"560 653 LINE SMOOTH",
"560 615 OFFCURVE",
"532 587 OFFCURVE",
"495 587 CURVE SMOOTH",
"458 587 OFFCURVE",
"430 559 OFFCURVE",
"430 521 CURVE SMOOTH",
"430 66 LINE SMOOTH",
"430 28 OFFCURVE",
"458 0 OFFCURVE",
"496 0 CURVE SMOOTH",
"1014 0 LINE SMOOTH",
"1052 0 OFFCURVE",
"1080 28 OFFCURVE",
"1080 66 CURVE SMOOTH",
"1080 194 LINE SMOOTH",
"1080 232 OFFCURVE",
"1052 260 OFFCURVE",
"1014 260 CURVE SMOOTH",
"626 260 LINE SMOOTH",
"588 260 OFFCURVE",
"560 288 OFFCURVE",
"560 326 CURVE SMOOTH",
"560 454 LINE SMOOTH",
"560 492 OFFCURVE",
"588 520 OFFCURVE",
"626 520 CURVE SMOOTH",
"1014 520 LINE SMOOTH",
"1052 520 OFFCURVE",
"1080 548 OFFCURVE",
"1080 586 CURVE SMOOTH",
"1080 649 LINE SMOOTH",
"1080 687 OFFCURVE",
"1052 715 OFFCURVE",
"1014 715 CURVE SMOOTH",
"756 715 LINE SMOOTH",
"718 715 OFFCURVE",
"690 743 OFFCURVE",
"690 781 CURVE SMOOTH",
"690 974 LINE SMOOTH",
"690 1012 OFFCURVE",
"718 1040 OFFCURVE",
"756 1040 CURVE SMOOTH",
"1014 1040 LINE SMOOTH",
"1052 1040 OFFCURVE",
"1080 1068 OFFCURVE",
"1080 1105 CURVE SMOOTH"
);
}
);
width = 1250;
}
);
unicode = 0664;
},
{
glyphname = "five-ar";
lastChange = "2018-03-11 17:09:37 +0000";
layers = (
{
layerId = "5AEFF443-300A-40AC-BA7E-D2439C71845E";
paths = (
{
closed = 1;
nodes = (
"815 0 LINE SMOOTH",
"968 0 OFFCURVE",
"1080 112 OFFCURVE",
"1080 265 CURVE SMOOTH",
"1080 905 LINE SMOOTH",
"1080 1058 OFFCURVE",
"968 1170 OFFCURVE",
"815 1170 CURVE SMOOTH",
"435 1170 LINE SMOOTH",
"282 1170 OFFCURVE",
"170 1058 OFFCURVE",
"170 905 CURVE SMOOTH",
"170 265 LINE SMOOTH",
"170 112 OFFCURVE",
"282 0 OFFCURVE",
"435 0 CURVE SMOOTH"
);
},
{
closed = 1;
nodes = (
"356 520 OFFCURVE",
"300 576 OFFCURVE",
"300 653 CURVE SMOOTH",
"300 907 LINE SMOOTH",
"300 984 OFFCURVE",
"356 1040 OFFCURVE",
"433 1040 CURVE SMOOTH",
"817 1040 LINE SMOOTH",
"894 1040 OFFCURVE",
"950 984 OFFCURVE",
"950 907 CURVE SMOOTH",
"950 653 LINE SMOOTH",
"950 576 OFFCURVE",
"894 520 OFFCURVE",
"817 520 CURVE SMOOTH",
"433 520 LINE SMOOTH"
);
}
);
width = 1250;
},
{
associatedMasterId = "5AEFF443-300A-40AC-BA7E-D2439C71845E";
layerId = "EE8091F4-3142-4753-A7D9-008BB58D91DD";
name = Crude;
paths = (
{
closed = 1;
nodes = (
"300 1040 LINE",
"950 1040 LINE",
"950 520 LINE",
"300 520 LINE"
);
},
{
closed = 1;
nodes = (
"170 0 LINE",
"1080 0 LINE",
"1080 1170 LINE",
"170 1170 LINE"
);
}
);
width = 1250;
},
{
associatedMasterId = "5AEFF443-300A-40AC-BA7E-D2439C71845E";
layerId = "C28C7C4E-264E-45BD-96E6-4267B7ABA393";
name = "Thicker zero";
paths = (
{
closed = 1;
nodes = (
"815 0 LINE SMOOTH",
"968 0 OFFCURVE",
"1080 112 OFFCURVE",
"1080 265 CURVE SMOOTH",
"1080 905 LINE SMOOTH",
"1080 1058 OFFCURVE",
"968 1170 OFFCURVE",
"815 1170 CURVE SMOOTH",
"435 1170 LINE SMOOTH",
"282 1170 OFFCURVE",
"170 1058 OFFCURVE",
"170 905 CURVE SMOOTH",
"170 265 LINE SMOOTH",
"170 112 OFFCURVE",
"282 0 OFFCURVE",
"435 0 CURVE SMOOTH"
);
},
{
closed = 1;
nodes = (
"300 777 LINE SMOOTH",
"300 854 OFFCURVE",
"356 910 OFFCURVE",
"433 910 CURVE SMOOTH",
"817 910 LINE SMOOTH",
"894 910 OFFCURVE",
"950 854 OFFCURVE",
"950 777 CURVE SMOOTH",
"950 393 LINE SMOOTH",
"950 316 OFFCURVE",
"894 260 OFFCURVE",
"817 260 CURVE SMOOTH",
"433 260 LINE SMOOTH",
"356 260 OFFCURVE",
"300 316 OFFCURVE",
"300 393 CURVE SMOOTH"
);
}
);
width = 1250;
},
{
associatedMasterId = "5AEFF443-300A-40AC-BA7E-D2439C71845E";
layerId = "CCEDDEC8-93B3-4B1E-AEC5-9B15EAC06EC2";
name = Uneven;
paths = (
{
closed = 1;
nodes = (
"815 0 LINE SMOOTH",
"968 0 OFFCURVE",
"1080 112 OFFCURVE",
"1080 265 CURVE SMOOTH",
"1080 905 LINE SMOOTH",
"1080 1058 OFFCURVE",
"968 1170 OFFCURVE",
"815 1170 CURVE SMOOTH",
"435 1170 LINE SMOOTH",
"282 1170 OFFCURVE",
"170 1058 OFFCURVE",
"170 905 CURVE SMOOTH",
"170 265 LINE SMOOTH",
"170 112 OFFCURVE",
"282 0 OFFCURVE",
"435 0 CURVE SMOOTH"
);
},
{
closed = 1;
nodes = (
"300 777 LINE SMOOTH",
"300 854 OFFCURVE",
"356 910 OFFCURVE",
"433 910 CURVE SMOOTH",
"690 910 LINE SMOOTH",
"767 910 OFFCURVE",
"823 854 OFFCURVE",
"823 777 CURVE SMOOTH",
"823 393 LINE SMOOTH",
"823 316 OFFCURVE",
"767 260 OFFCURVE",
"690 260 CURVE SMOOTH",
"433 260 LINE SMOOTH",
"356 260 OFFCURVE",
"300 316 OFFCURVE",
"300 393 CURVE SMOOTH"
);
}
);
width = 1250;
},
{
associatedMasterId = "5AEFF443-300A-40AC-BA7E-D2439C71845E";
layerId = "61C4DD8E-0693-4B06-BD7B-7A6DD47B495E";
name = Experimental;
paths = (
{
closed = 1;
nodes = (
"282 1170 OFFCURVE",
"170 1058 OFFCURVE",
"170 905 CURVE SMOOTH",
"170 265 LINE SMOOTH",
"170 112 OFFCURVE",
"282 0 OFFCURVE",
"435 0 CURVE SMOOTH",
"815 0 LINE SMOOTH",
"968 0 OFFCURVE",
"1080 112 OFFCURVE",
"1080 265 CURVE SMOOTH",
"1080 905 LINE SMOOTH",
"1080 1058 OFFCURVE",
"968 1170 OFFCURVE",
"815 1170 CURVE SMOOTH",
"435 1170 LINE SMOOTH"
);
},
{
closed = 1;
nodes = (
"300 780 LINE SMOOTH",
"300 857 OFFCURVE",
"356 913 OFFCURVE",
"433 913 CURVE SMOOTH",
"820 913 LINE SMOOTH",
"897 913 OFFCURVE",
"953 857 OFFCURVE",
"953 780 CURVE SMOOTH",
"953 650 LINE SMOOTH",
"953 608 OFFCURVE",
"930 585 OFFCURVE",
"888 585 CURVE SMOOTH",
"885 585 LINE SMOOTH",
"843 585 OFFCURVE",
"820 562 OFFCURVE",
"820 520 CURVE SMOOTH",
"820 326 LINE SMOOTH",
"820 288 OFFCURVE",
"792 260 OFFCURVE",
"754 260 CURVE SMOOTH",
"433 260 LINE SMOOTH",
"356 260 OFFCURVE",
"300 316 OFFCURVE",
"300 393 CURVE SMOOTH"
);
}
);
width = 1250;
},
{
associatedMasterId = "5AEFF443-300A-40AC-BA7E-D2439C71845E";
layerId = "960043D8-D175-4B03-8C4A-61079EF99275";
name = "Symmetrical Dark";
paths = (
{
closed = 1;
nodes = (
"815 0 LINE SMOOTH",
"968 0 OFFCURVE",
"1080 112 OFFCURVE",
"1080 265 CURVE SMOOTH",
"1080 905 LINE SMOOTH",
"1080 1058 OFFCURVE",
"968 1170 OFFCURVE",
"815 1170 CURVE SMOOTH",
"435 1170 LINE SMOOTH",
"282 1170 OFFCURVE",
"170 1058 OFFCURVE",
"170 905 CURVE SMOOTH",
"170 265 LINE SMOOTH",
"170 112 OFFCURVE",
"282 0 OFFCURVE",
"435 0 CURVE SMOOTH"
);
},
{
closed = 1;
nodes = (
"297 650 LINE SMOOTH",
"297 727 OFFCURVE",
"353 783 OFFCURVE",
"430 783 CURVE SMOOTH",
"817 783 LINE SMOOTH",
"894 783 OFFCURVE",
"950 727 OFFCURVE",
"950 650 CURVE SMOOTH",
"950 520 LINE SMOOTH",
"950 443 OFFCURVE",
"894 387 OFFCURVE",
"817 387 CURVE SMOOTH",
"430 387 LINE SMOOTH",
"353 387 OFFCURVE",
"297 443 OFFCURVE",
"297 520 CURVE SMOOTH"
);
}
);
width = 1250;
}
);
unicode = 0665;
},
{
glyphname = "six-ar";
lastChange = "2018-03-11 17:09:37 +0000";
layers = (
{
layerId = "5AEFF443-300A-40AC-BA7E-D2439C71845E";
paths = (
{
closed = 1;
nodes = (
"1014 0 LINE SMOOTH",
"1052 0 OFFCURVE",
"1080 28 OFFCURVE",
"1080 66 CURVE SMOOTH",
"1080 519 LINE SMOOTH",
"1080 557 OFFCURVE",
"1052 585 OFFCURVE",
"1015 585 CURVE SMOOTH",
"978 585 OFFCURVE",
"950 613 OFFCURVE",
"950 651 CURVE SMOOTH",
"950 1104 LINE SMOOTH",
"950 1142 OFFCURVE",
"922 1170 OFFCURVE",
"884 1170 CURVE SMOOTH",
"366 1170 LINE SMOOTH",
"328 1170 OFFCURVE",
"300 1142 OFFCURVE",
"300 1104 CURVE SMOOTH",
"300 976 LINE SMOOTH",
"300 938 OFFCURVE",
"328 910 OFFCURVE",
"366 910 CURVE SMOOTH",
"754 910 LINE SMOOTH",
"792 910 OFFCURVE",
"820 882 OFFCURVE",
"820 844 CURVE SMOOTH",
"820 66 LINE SMOOTH",
"820 28 OFFCURVE",
"848 0 OFFCURVE",
"886 0 CURVE SMOOTH"
);
}
);
width = 1250;
},
{
associatedMasterId = "5AEFF443-300A-40AC-BA7E-D2439C71845E";
layerId = "3A0A0782-EBF8-4095-A67D-69F04B621259";
name = Crude;
paths = (
{
closed = 1;
nodes = (
"1080 0 LINE",
"1080 585 LINE",
"950 585 LINE",
"950 1170 LINE",
"300 1170 LINE",
"300 910 LINE",
"820 910 LINE",
"820 0 LINE"
);
}
);
width = 1250;
},
{
associatedMasterId = "5AEFF443-300A-40AC-BA7E-D2439C71845E";
layerId = "6E54CA25-39FA-45CB-85C4-FD62AC229D45";
name = Undecorated;
paths = (
{
closed = 1;
nodes = (
"1052 0 OFFCURVE",
"1080 28 OFFCURVE",
"1080 66 CURVE SMOOTH",
"1080 1104 LINE SMOOTH",
"1080 1142 OFFCURVE",
"1052 1170 OFFCURVE",
"1014 1170 CURVE SMOOTH",
"496 1170 LINE SMOOTH",
"458 1170 OFFCURVE",
"430 1142 OFFCURVE",
"430 1104 CURVE SMOOTH",
"430 976 LINE SMOOTH",
"430 938 OFFCURVE",
"458 910 OFFCURVE",
"496 910 CURVE SMOOTH",
"884 910 LINE SMOOTH",
"922 910 OFFCURVE",
"950 882 OFFCURVE",
"950 844 CURVE SMOOTH",
"950 66 LINE SMOOTH",
"950 28 OFFCURVE",
"978 0 OFFCURVE",
"1015 0 CURVE SMOOTH"
);
}
);
width = 1250;
},
{
associatedMasterId = "5AEFF443-300A-40AC-BA7E-D2439C71845E";
layerId = "5C37D145-0B80-40E5-A0CE-B8419026C573";
name = "Inverted slab";
paths = (
{
closed = 1;
nodes = (
"430 976 LINE SMOOTH",
"430 938 OFFCURVE",
"458 910 OFFCURVE",
"496 910 CURVE SMOOTH",
"884 910 LINE SMOOTH",
"922 910 OFFCURVE",
"950 882 OFFCURVE",
"950 844 CURVE SMOOTH",
"950 716 LINE SMOOTH",
"950 678 OFFCURVE",
"922 650 OFFCURVE",
"885 650 CURVE SMOOTH",
"848 650 OFFCURVE",
"820 622 OFFCURVE",
"820 584 CURVE SMOOTH",
"820 66 LINE SMOOTH",
"820 28 OFFCURVE",
"848 0 OFFCURVE",
"886 0 CURVE SMOOTH",
"1014 0 LINE SMOOTH",
"1052 0 OFFCURVE",
"1080 28 OFFCURVE",
"1080 66 CURVE SMOOTH",
"1080 1104 LINE SMOOTH",
"1080 1142 OFFCURVE",
"1052 1170 OFFCURVE",
"1014 1170 CURVE SMOOTH",
"496 1170 LINE SMOOTH",
"458 1170 OFFCURVE",
"430 1142 OFFCURVE",
"430 1104 CURVE SMOOTH"
);
}
);
width = 1250;
}
);
unicode = 0666;
},
{
glyphname = "seven-ar";
lastChange = "2018-03-11 17:10:27 +0000";
layers = (
{
layerId = "5AEFF443-300A-40AC-BA7E-D2439C71845E";
paths = (
{
closed = 1;
nodes = (
"538 0 LINE SMOOTH",
"552 0 OFFCURVE",
"565 5 OFFCURVE",
"576 16 CURVE SMOOTH",
"1064 504 LINE SMOOTH",
"1074 514 OFFCURVE",
"1080 528 OFFCURVE",
"1080 542 CURVE SMOOTH",
"1080 1104 LINE SMOOTH",
"1080 1142 OFFCURVE",
"1052 1170 OFFCURVE",
"1015 1170 CURVE SMOOTH",
"978 1170 OFFCURVE",
"950 1142 OFFCURVE",
"950 1104 CURVE SMOOTH",
"950 596 LINE SMOOTH",
"950 582 OFFCURVE",
"944 568 OFFCURVE",
"934 558 CURVE SMOOTH",
"640 264 LINE SMOOTH",
"624 248 OFFCURVE",
"609 241 OFFCURVE",
"596 241 CURVE SMOOTH",
"575 241 OFFCURVE",
"560 261 OFFCURVE",
"560 297 CURVE SMOOTH",
"560 1104 LINE SMOOTH",
"560 1142 OFFCURVE",
"532 1170 OFFCURVE",
"495 1170 CURVE SMOOTH",
"458 1170 OFFCURVE",
"430 1142 OFFCURVE",
"430 1104 CURVE SMOOTH",
"430 66 LINE SMOOTH",
"430 28 OFFCURVE",
"458 0 OFFCURVE",
"496 0 CURVE SMOOTH"
);
}
);
width = 1250;
},
{
associatedMasterId = "5AEFF443-300A-40AC-BA7E-D2439C71845E";
layerId = "72637C81-25D7-45FB-914B-7482EDAFDC34";
name = Crude;
paths = (
{
closed = 1;
nodes = (
"950 574 LINE",
"506 130 LINE",
"560 130 LINE",
"560 1170 LINE",
"430 1170 LINE",
"430 0 LINE",
"560 0 LINE",
"1080 520 LINE",
"1080 1170 LINE",
"950 1170 LINE"
);
}
);
width = 1250;
},
{
associatedMasterId = "5AEFF443-300A-40AC-BA7E-D2439C71845E";
layerId = "9A7B9BFF-67B0-4896-8897-5D4575EDA455";
name = "Thicker right";
paths = (
{
closed = 1;
nodes = (
"820 476 LINE SMOOTH",
"820 462 OFFCURVE",
"815 449 OFFCURVE",
"805 438 CURVE SMOOTH",
"659 287 LINE SMOOTH",
"596 222 OFFCURVE",
"522 130 OFFCURVE",
"533 130 CURVE SMOOTH",
"548 130 OFFCURVE",
"560 158 OFFCURVE",
"560 196 CURVE SMOOTH",
"560 1104 LINE SMOOTH",
"560 1142 OFFCURVE",
"532 1170 OFFCURVE",
"495 1170 CURVE SMOOTH",
"458 1170 OFFCURVE",
"430 1142 OFFCURVE",
"430 1104 CURVE SMOOTH",
"430 66 LINE SMOOTH",
"430 28 OFFCURVE",
"458 0 OFFCURVE",
"496 0 CURVE SMOOTH",
"538 0 LINE SMOOTH",
"552 0 OFFCURVE",
"565 5 OFFCURVE",
"576 16 CURVE SMOOTH",
"1064 504 LINE SMOOTH",
"1074 514 OFFCURVE",
"1080 528 OFFCURVE",
"1080 542 CURVE SMOOTH",
"1080 1104 LINE SMOOTH",
"1080 1142 OFFCURVE",
"1052 1170 OFFCURVE",
"1014 1170 CURVE SMOOTH",
"886 1170 LINE SMOOTH",
"848 1170 OFFCURVE",
"820 1142 OFFCURVE",
"820 1104 CURVE SMOOTH"
);
}
);
width = 1250;
},
{
associatedMasterId = "5AEFF443-300A-40AC-BA7E-D2439C71845E";
layerId = "AB760FB6-C7FB-4658-B513-C3B84CC8D9FB";
name = "Thicker left";
paths = (
{
closed = 1;
nodes = (
"950 596 LINE SMOOTH",
"950 582 OFFCURVE",
"944 568 OFFCURVE",
"934 558 CURVE SMOOTH",
"640 264 LINE SMOOTH",
"599 223 OFFCURVE",
"560 239 OFFCURVE",
"560 297 CURVE SMOOTH",
"560 1104 LINE SMOOTH",
"560 1142 OFFCURVE",
"532 1170 OFFCURVE",
"494 1170 CURVE SMOOTH",
"366 1170 LINE SMOOTH",
"328 1170 OFFCURVE",
"300 1142 OFFCURVE",
"300 1104 CURVE SMOOTH",
"300 66 LINE SMOOTH",
"300 28 OFFCURVE",
"328 0 OFFCURVE",
"366 0 CURVE SMOOTH",
"538 0 LINE SMOOTH",
"552 0 OFFCURVE",
"565 5 OFFCURVE",
"576 16 CURVE SMOOTH",
"1064 504 LINE SMOOTH",
"1074 514 OFFCURVE",
"1080 528 OFFCURVE",
"1080 542 CURVE SMOOTH",
"1080 1104 LINE SMOOTH",
"1080 1142 OFFCURVE",
"1052 1170 OFFCURVE",
"1015 1170 CURVE SMOOTH",
"978 1170 OFFCURVE",
"950 1142 OFFCURVE",
"950 1104 CURVE SMOOTH"
);
}
);
width = 1250;
},
{
associatedMasterId = "5AEFF443-300A-40AC-BA7E-D2439C71845E";
layerId = "DFD78C91-58FD-481F-B165-611054902758";
name = "Decorated inner";
paths = (
{
closed = 1;
nodes = (
"886 1170 LINE SMOOTH",
"848 1170 OFFCURVE",
"820 1142 OFFCURVE",
"820 1104 CURVE SMOOTH",
"820 846 LINE SMOOTH",
"820 808 OFFCURVE",
"848 780 OFFCURVE",
"885 780 CURVE SMOOTH",
"922 780 OFFCURVE",
"950 752 OFFCURVE",
"950 714 CURVE SMOOTH",
"950 596 LINE SMOOTH",
"950 582 OFFCURVE",
"944 568 OFFCURVE",
"934 558 CURVE SMOOTH",
"640 264 LINE SMOOTH",
"599 223 OFFCURVE",
"560 239 OFFCURVE",
"560 297 CURVE SMOOTH",
"560 1104 LINE SMOOTH",
"560 1142 OFFCURVE",
"532 1170 OFFCURVE",
"495 1170 CURVE SMOOTH",
"458 1170 OFFCURVE",
"430 1142 OFFCURVE",
"430 1104 CURVE SMOOTH",
"430 66 LINE SMOOTH",
"430 28 OFFCURVE",
"458 0 OFFCURVE",
"496 0 CURVE SMOOTH",
"538 0 LINE SMOOTH",
"552 0 OFFCURVE",
"565 5 OFFCURVE",
"576 16 CURVE SMOOTH",
"1064 504 LINE SMOOTH",
"1074 514 OFFCURVE",
"1080 528 OFFCURVE",
"1080 542 CURVE SMOOTH",
"1080 1104 LINE SMOOTH",
"1080 1142 OFFCURVE",
"1052 1170 OFFCURVE",
"1014 1170 CURVE SMOOTH"
);
}
);
width = 1250;
},
{
associatedMasterId = "5AEFF443-300A-40AC-BA7E-D2439C71845E";
layerId = "1ED4A167-E03C-4C48-B38C-21730400A6A5";
name = "Decorated outer";
paths = (
{
closed = 1;
nodes = (
"886 1170 LINE SMOOTH",
"848 1170 OFFCURVE",
"820 1142 OFFCURVE",
"820 1104 CURVE SMOOTH",
"820 596 LINE SMOOTH",
"820 582 OFFCURVE",
"814 568 OFFCURVE",
"804 558 CURVE SMOOTH",
"590 344 LINE SMOOTH",
"525 279 OFFCURVE",
"430 318 OFFCURVE",
"430 410 CURVE SMOOTH",
"430 1104 LINE SMOOTH",
"430 1142 OFFCURVE",
"402 1170 OFFCURVE",
"365 1170 CURVE SMOOTH",
"328 1170 OFFCURVE",
"300 1142 OFFCURVE",
"300 1104 CURVE SMOOTH",
"300 66 LINE SMOOTH",
"300 28 OFFCURVE",
"328 0 OFFCURVE",
"366 0 CURVE SMOOTH",
"408 0 LINE SMOOTH",
"422 0 OFFCURVE",
"436 6 OFFCURVE",
"446 16 CURVE SMOOTH",
"934 504 LINE SMOOTH",
"944 514 OFFCURVE",
"950 528 OFFCURVE",
"950 542 CURVE SMOOTH",
"950 649 LINE SMOOTH",
"950 687 OFFCURVE",
"978 715 OFFCURVE",
"1015 715 CURVE SMOOTH",
"1052 715 OFFCURVE",
"1080 743 OFFCURVE",
"1080 781 CURVE SMOOTH",
"1080 1104 LINE SMOOTH",
"1080 1142 OFFCURVE",
"1052 1170 OFFCURVE",
"1014 1170 CURVE SMOOTH"
);
}
);
width = 1250;
}
);
unicode = 0667;
},
{
glyphname = "eight-ar";
lastChange = "2018-03-11 17:10:21 +0000";
layers = (
{
layerId = "5AEFF443-300A-40AC-BA7E-D2439C71845E";
paths = (
{
closed = 1;
nodes = (
"402 0 OFFCURVE",
"430 28 OFFCURVE",
"430 66 CURVE SMOOTH",
"430 574 LINE SMOOTH",
"430 588 OFFCURVE",
"436 602 OFFCURVE",
"446 612 CURVE SMOOTH",
"740 906 LINE SMOOTH",
"756 922 OFFCURVE",
"771 929 OFFCURVE",
"784 929 CURVE SMOOTH",
"805 929 OFFCURVE",
"820 909 OFFCURVE",
"820 873 CURVE SMOOTH",
"820 66 LINE SMOOTH",
"820 28 OFFCURVE",
"848 0 OFFCURVE",
"886 0 CURVE SMOOTH",
"1014 0 LINE SMOOTH",
"1052 0 OFFCURVE",
"1080 28 OFFCURVE",
"1080 66 CURVE SMOOTH",
"1080 1104 LINE SMOOTH",
"1080 1142 OFFCURVE",
"1052 1170 OFFCURVE",
"1014 1170 CURVE SMOOTH",
"842 1170 LINE SMOOTH",
"828 1170 OFFCURVE",
"814 1164 OFFCURVE",
"804 1154 CURVE SMOOTH",
"316 666 LINE SMOOTH",
"305 655 OFFCURVE",
"300 642 OFFCURVE",
"300 628 CURVE SMOOTH",
"300 66 LINE SMOOTH",
"300 28 OFFCURVE",
"328 0 OFFCURVE",
"365 0 CURVE SMOOTH"
);
}
);
width = 1250;
},
{
associatedMasterId = "5AEFF443-300A-40AC-BA7E-D2439C71845E";
layerId = "A937CC44-28DB-43CD-8E53-32361188F301";
name = Crude;
paths = (
{
closed = 1;
nodes = (
"430 596 LINE",
"874 1040 LINE",
"820 1040 LINE",
"820 0 LINE",
"1080 0 LINE",
"1080 1170 LINE",
"820 1170 LINE",
"300 650 LINE",
"300 0 LINE",
"430 0 LINE"
);
}
);
width = 1250;
}
);
unicode = 0668;
},
{
glyphname = "nine-ar";
lastChange = "2018-03-11 17:09:37 +0000";
layers = (
{
layerId = "5AEFF443-300A-40AC-BA7E-D2439C71845E";
paths = (
{
closed = 1;
nodes = (
"1014 0 LINE SMOOTH",
"1052 0 OFFCURVE",
"1080 28 OFFCURVE",
"1080 66 CURVE SMOOTH",
"1080 1104 LINE SMOOTH",
"1080 1142 OFFCURVE",
"1052 1170 OFFCURVE",
"1014 1170 CURVE SMOOTH",
"366 1170 LINE SMOOTH",
"328 1170 OFFCURVE",
"300 1142 OFFCURVE",
"300 1104 CURVE SMOOTH",
"300 586 LINE SMOOTH",
"300 548 OFFCURVE",
"328 520 OFFCURVE",
"366 520 CURVE SMOOTH",
"754 520 LINE SMOOTH",
"792 520 OFFCURVE",
"820 492 OFFCURVE",
"820 454 CURVE SMOOTH",
"820 66 LINE SMOOTH",
"820 28 OFFCURVE",
"848 0 OFFCURVE",
"886 0 CURVE SMOOTH"
);
},
{
closed = 1;
nodes = (
"458 780 OFFCURVE",
"430 808 OFFCURVE",
"430 846 CURVE SMOOTH",
"430 974 LINE SMOOTH",
"430 1012 OFFCURVE",
"458 1040 OFFCURVE",
"496 1040 CURVE SMOOTH",
"884 1040 LINE SMOOTH",
"922 1040 OFFCURVE",
"950 1012 OFFCURVE",
"950 974 CURVE SMOOTH",
"950 846 LINE SMOOTH",
"950 808 OFFCURVE",
"922 780 OFFCURVE",
"884 780 CURVE SMOOTH",
"496 780 LINE SMOOTH"
);
}
);
width = 1250;
},
{
associatedMasterId = "5AEFF443-300A-40AC-BA7E-D2439C71845E";
layerId = "BEB1FD08-F6C9-4C1B-B89F-ACC952E62BFE";
name = Crude;
paths = (
{
closed = 1;
nodes = (
"1080 0 LINE",
"1080 1170 LINE",
"300 1170 LINE",
"300 520 LINE",
"820 520 LINE",
"820 0 LINE"
);
},
{
closed = 1;
nodes = (
"430 1040 LINE",
"950 1040 LINE",
"950 780 LINE",
"430 780 LINE"
);
}
);
width = 1250;
}
);
unicode = 0669;
},
{
glyphname = ocrAmountOfCheck;
lastChange = "2018-03-11 17:09:37 +0000";
layers = (
{
layerId = "5AEFF443-300A-40AC-BA7E-D2439C71845E";
paths = (
{
closed = 1;
nodes = (
"1014 650 LINE SMOOTH",
"1052 650 OFFCURVE",
"1080 678 OFFCURVE",
"1080 716 CURVE SMOOTH",
"1080 1104 LINE SMOOTH",
"1080 1142 OFFCURVE",
"1052 1170 OFFCURVE",
"1014 1170 CURVE SMOOTH",
"886 1170 LINE SMOOTH",
"848 1170 OFFCURVE",
"820 1142 OFFCURVE",
"820 1104 CURVE SMOOTH",
"820 716 LINE SMOOTH",
"820 678 OFFCURVE",
"848 650 OFFCURVE",
"886 650 CURVE SMOOTH"
);
},
{
closed = 1;
nodes = (
"364 0 LINE SMOOTH",
"402 0 OFFCURVE",
"430 28 OFFCURVE",
"430 66 CURVE SMOOTH",
"430 454 LINE SMOOTH",
"430 492 OFFCURVE",
"402 520 OFFCURVE",
"364 520 CURVE SMOOTH",
"236 520 LINE SMOOTH",
"198 520 OFFCURVE",
"170 492 OFFCURVE",
"170 454 CURVE SMOOTH",
"170 66 LINE SMOOTH",
"170 28 OFFCURVE",
"198 0 OFFCURVE",
"236 0 CURVE SMOOTH"
);
},
{
closed = 1;
nodes = (
"662 357 OFFCURVE",
"690 385 OFFCURVE",
"690 423 CURVE SMOOTH",
"690 876 LINE SMOOTH",
"690 914 OFFCURVE",
"662 942 OFFCURVE",
"625 942 CURVE SMOOTH",
"588 942 OFFCURVE",
"560 914 OFFCURVE",
"560 876 CURVE SMOOTH",
"560 423 LINE SMOOTH",
"560 385 OFFCURVE",
"588 357 OFFCURVE",
"625 357 CURVE SMOOTH"
);
}
);
width = 1250;
},
{
associatedMasterId = "5AEFF443-300A-40AC-BA7E-D2439C71845E";
layerId = "DD668EBD-0828-4B87-91F0-13FA726F2786";
name = Crude;
paths = (
{
closed = 1;
nodes = (
"1080 650 LINE",
"1080 1170 LINE",
"820 1170 LINE",
"820 650 LINE"
);
},
{
closed = 1;
nodes = (
"430 0 LINE",
"430 520 LINE",
"170 520 LINE",
"170 0 LINE"
);
},
{
closed = 1;
nodes = (
"690 357 LINE",
"690 942 LINE",
"560 942 LINE",
"560 357 LINE"
);
}
);
width = 1250;
}
);
unicode = 2447;
},
{
glyphname = ocrBranchBankIdentification;
lastChange = "2018-03-11 17:09:37 +0000";
layers = (
{
layerId = "5AEFF443-300A-40AC-BA7E-D2439C71845E";
paths = (
{
closed = 1;
nodes = (
"364 195 LINE SMOOTH",
"402 195 OFFCURVE",
"430 223 OFFCURVE",
"430 261 CURVE SMOOTH",
"430 909 LINE SMOOTH",
"430 947 OFFCURVE",
"402 975 OFFCURVE",
"364 975 CURVE SMOOTH",
"236 975 LINE SMOOTH",
"198 975 OFFCURVE",
"170 947 OFFCURVE",
"170 909 CURVE SMOOTH",
"170 261 LINE SMOOTH",
"170 223 OFFCURVE",
"198 195 OFFCURVE",
"236 195 CURVE SMOOTH"
);
},
{
closed = 1;
nodes = (
"1014 0 LINE SMOOTH",
"1052 0 OFFCURVE",
"1080 28 OFFCURVE",
"1080 66 CURVE SMOOTH",
"1080 324 LINE SMOOTH",
"1080 362 OFFCURVE",
"1052 390 OFFCURVE",
"1014 390 CURVE SMOOTH",
"756 390 LINE SMOOTH",
"718 390 OFFCURVE",
"690 362 OFFCURVE",
"690 324 CURVE SMOOTH",
"690 66 LINE SMOOTH",
"690 28 OFFCURVE",
"718 0 OFFCURVE",
"756 0 CURVE SMOOTH"
);
},
{
closed = 1;
nodes = (
"1014 780 LINE SMOOTH",
"1052 780 OFFCURVE",
"1080 808 OFFCURVE",
"1080 846 CURVE SMOOTH",
"1080 1104 LINE SMOOTH",
"1080 1142 OFFCURVE",
"1052 1170 OFFCURVE",
"1014 1170 CURVE SMOOTH",
"756 1170 LINE SMOOTH",
"718 1170 OFFCURVE",
"690 1142 OFFCURVE",
"690 1104 CURVE SMOOTH",
"690 846 LINE SMOOTH",
"690 808 OFFCURVE",
"718 780 OFFCURVE",
"756 780 CURVE SMOOTH"
);
}
);
width = 1250;
},
{
associatedMasterId = "5AEFF443-300A-40AC-BA7E-D2439C71845E";
layerId = "C84450C4-BEF5-4946-B160-95C1D906C101";
name = Crude;
paths = (
{
closed = 1;
nodes = (
"430 195 LINE",
"430 975 LINE",
"170 975 LINE",
"170 195 LINE"
);
},
{
closed = 1;
nodes = (
"1080 0 LINE",
"1080 390 LINE",
"690 390 LINE",
"690 0 LINE"
);
},
{
closed = 1;
nodes = (
"1080 780 LINE",
"1080 1170 LINE",
"690 1170 LINE",
"690 780 LINE"
);
}
);
width = 1250;
}
);
unicode = 2446;
},
{
glyphname = ocrCustomerAccount;
lastChange = "2018-03-11 17:09:37 +0000";
layers = (
{
layerId = "5AEFF443-300A-40AC-BA7E-D2439C71845E";
paths = (
{
closed = 1;
nodes = (
"754 325 LINE SMOOTH",
"792 325 OFFCURVE",
"820 353 OFFCURVE",
"820 391 CURVE SMOOTH",
"820 779 LINE SMOOTH",
"820 817 OFFCURVE",
"792 845 OFFCURVE",
"754 845 CURVE SMOOTH",
"626 845 LINE SMOOTH",
"588 845 OFFCURVE",
"560 817 OFFCURVE",
"560 779 CURVE SMOOTH",
"560 391 LINE SMOOTH",
"560 353 OFFCURVE",
"588 325 OFFCURVE",
"626 325 CURVE SMOOTH"
);
},
{
closed = 1;
nodes = (
"364 325 LINE SMOOTH",
"402 325 OFFCURVE",
"430 353 OFFCURVE",
"430 391 CURVE SMOOTH",
"430 779 LINE SMOOTH",
"430 817 OFFCURVE",
"402 845 OFFCURVE",
"364 845 CURVE SMOOTH",
"236 845 LINE SMOOTH",
"198 845 OFFCURVE",
"170 817 OFFCURVE",
"170 779 CURVE SMOOTH",
"170 391 LINE SMOOTH",
"170 353 OFFCURVE",
"198 325 OFFCURVE",
"236 325 CURVE SMOOTH"
);
},
{
closed = 1;
nodes = (
"1052 325 OFFCURVE",
"1080 353 OFFCURVE",
"1080 391 CURVE SMOOTH",
"1080 779 LINE SMOOTH",
"1080 817 OFFCURVE",
"1052 845 OFFCURVE",
"1015 845 CURVE SMOOTH",
"978 845 OFFCURVE",
"950 817 OFFCURVE",
"950 779 CURVE SMOOTH",
"950 391 LINE SMOOTH",
"950 353 OFFCURVE",
"978 325 OFFCURVE",
"1015 325 CURVE SMOOTH"
);
}
);
width = 1250;
},
{
associatedMasterId = "5AEFF443-300A-40AC-BA7E-D2439C71845E";
layerId = "FC6C7820-4ECD-4B2E-82F7-018B3F022F62";
name = Crude;
paths = (
{
closed = 1;
nodes = (
"820 325 LINE",
"820 845 LINE",
"560 845 LINE",
"560 325 LINE"
);
},
{
closed = 1;
nodes = (
"430 325 LINE",
"430 845 LINE",
"170 845 LINE",
"170 325 LINE"
);
},
{
closed = 1;
nodes = (
"1080 325 LINE",
"1080 845 LINE",
"950 845 LINE",
"950 325 LINE"
);
}
);
width = 1250;
}
);
unicode = 2449;
},
